<svg width="30" height="34" viewBox="0 0 30 34" fill="none" xmlns="http://www.w3.org/2000/svg">
<path d="M8.36 33.36C6.52 33.36 5 32.9467 3.8 32.12C2.62667 31.2933 1.74667 30.16 1.16 28.72C0.6 27.28 0.32 25.64 0.32 23.8V9.84C0.32 7.94666 0.6 6.29333 1.16 4.88C1.72 3.44 2.58667 2.32 3.76 1.52C4.96 0.719998 6.49333 0.319999 8.36 0.319999C10.2267 0.319999 11.7467 0.719998 12.92 1.52C14.0933 2.32 14.96 3.44 15.52 4.88C16.08 6.29333 16.36 7.94666 16.36 9.84V23.8C16.36 25.6667 16.0667 27.32 15.48 28.76C14.92 30.2 14.0533 31.3333 12.88 32.16C11.7067 32.96 10.2 33.36 8.36 33.36ZM8.36 29.84C9.37333 29.84 10.1333 29.5467 10.64 28.96C11.1733 28.3733 11.5333 27.6267 11.72 26.72C11.9333 25.7867 12.04 24.8267 12.04 23.84V9.8C12.04 8.76 11.9467 7.78667 11.76 6.88C11.5733 5.94667 11.2133 5.2 10.68 4.64C10.1733 4.08 9.4 3.8 8.36 3.8C7.32 3.8 6.53333 4.08 6 4.64C5.46667 5.2 5.10667 5.94667 4.92 6.88C4.73333 7.78667 4.64 8.76 4.64 9.8V23.84C4.64 24.8267 4.73333 25.7867 4.92 26.72C5.13333 27.6267 5.50667 28.3733 6.04 28.96C6.6 29.5467 7.37333 29.84 8.36 29.84ZM25.5041 33V6.2C25.4774 6.22667 25.1707 6.30667 24.5841 6.44C24.0241 6.57333 23.3841 6.70667 22.6641 6.84C21.9441 6.97333 21.3041 7.09333 20.7441 7.2C20.1841 7.30667 19.8907 7.36 19.8641 7.36V4.12C20.3174 4.01333 20.8374 3.86667 21.4241 3.68C22.0374 3.49333 22.6507 3.26667 23.2641 3C23.9041 2.73333 24.5041 2.4 25.0641 2C25.6507 1.6 26.1441 1.13333 26.5441 0.599998H29.7841V33H25.5041Z" fill="#DEDEDE"/>
</svg>
