<svg width="37" height="34" viewBox="0 0 37 34" fill="none" xmlns="http://www.w3.org/2000/svg">
<path d="M8.36 33.36C6.52 33.36 5 32.9467 3.8 32.12C2.62667 31.2933 1.74667 30.16 1.16 28.72C0.6 27.28 0.32 25.64 0.32 23.8V9.84C0.32 7.94666 0.6 6.29333 1.16 4.88C1.72 3.44 2.58667 2.32 3.76 1.52C4.96 0.719998 6.49333 0.319999 8.36 0.319999C10.2267 0.319999 11.7467 0.719998 12.92 1.52C14.0933 2.32 14.96 3.44 15.52 4.88C16.08 6.29333 16.36 7.94666 16.36 9.84V23.8C16.36 25.6667 16.0667 27.32 15.48 28.76C14.92 30.2 14.0533 31.3333 12.88 32.16C11.7067 32.96 10.2 33.36 8.36 33.36ZM8.36 29.84C9.37333 29.84 10.1333 29.5467 10.64 28.96C11.1733 28.3733 11.5333 27.6267 11.72 26.72C11.9333 25.7867 12.04 24.8267 12.04 23.84V9.8C12.04 8.76 11.9467 7.78667 11.76 6.88C11.5733 5.94667 11.2133 5.2 10.68 4.64C10.1733 4.08 9.4 3.8 8.36 3.8C7.32 3.8 6.53333 4.08 6 4.64C5.46667 5.2 5.10667 5.94667 4.92 6.88C4.73333 7.78667 4.64 8.76 4.64 9.8V23.84C4.64 24.8267 4.73333 25.7867 4.92 26.72C5.13333 27.6267 5.50667 28.3733 6.04 28.96C6.6 29.5467 7.37333 29.84 8.36 29.84ZM20.3041 33V29.96L28.5441 17.12C29.1574 16.16 29.7174 15.2667 30.2241 14.44C30.7574 13.6133 31.1841 12.7467 31.5041 11.84C31.8507 10.9067 32.0241 9.84 32.0241 8.64C32.0241 7.14667 31.7841 5.97333 31.3041 5.12C30.8241 4.26667 29.9841 3.84 28.7841 3.84C27.7707 3.84 26.9841 4.12 26.4241 4.68C25.8641 5.24 25.4774 5.97333 25.2641 6.88C25.0507 7.78667 24.9441 8.76 24.9441 9.8V10.88H20.6641V9.76C20.6641 7.81333 20.9174 6.14667 21.4241 4.76C21.9574 3.34666 22.7974 2.25333 23.9441 1.48C25.1174 0.706665 26.6641 0.319999 28.5841 0.319999C31.1974 0.319999 33.1441 1.06667 34.4241 2.56C35.7041 4.02667 36.3441 6.06667 36.3441 8.68C36.3441 10.0667 36.1707 11.28 35.8241 12.32C35.5041 13.36 35.0774 14.3333 34.5441 15.24C34.0107 16.1467 33.4241 17.08 32.7841 18.04L25.3441 29.4H35.5841V33H20.3041Z" fill="#DEDEDE"/>
</svg>
