<svg width="37" height="34" viewBox="0 0 37 34" fill="none" xmlns="http://www.w3.org/2000/svg">
<path d="M8.36 33.36C6.52 33.36 5 32.9467 3.8 32.12C2.62667 31.2933 1.74667 30.16 1.16 28.72C0.6 27.28 0.32 25.64 0.32 23.8V9.84C0.32 7.94666 0.6 6.29333 1.16 4.88C1.72 3.44 2.58667 2.32 3.76 1.52C4.96 0.719998 6.49333 0.319999 8.36 0.319999C10.2267 0.319999 11.7467 0.719998 12.92 1.52C14.0933 2.32 14.96 3.44 15.52 4.88C16.08 6.29333 16.36 7.94666 16.36 9.84V23.8C16.36 25.6667 16.0667 27.32 15.48 28.76C14.92 30.2 14.0533 31.3333 12.88 32.16C11.7067 32.96 10.2 33.36 8.36 33.36ZM8.36 29.84C9.37333 29.84 10.1333 29.5467 10.64 28.96C11.1733 28.3733 11.5333 27.6267 11.72 26.72C11.9333 25.7867 12.04 24.8267 12.04 23.84V9.8C12.04 8.76 11.9467 7.78667 11.76 6.88C11.5733 5.94667 11.2133 5.2 10.68 4.64C10.1733 4.08 9.4 3.8 8.36 3.8C7.32 3.8 6.53333 4.08 6 4.64C5.46667 5.2 5.10667 5.94667 4.92 6.88C4.73333 7.78667 4.64 8.76 4.64 9.8V23.84C4.64 24.8267 4.73333 25.7867 4.92 26.72C5.13333 27.6267 5.50667 28.3733 6.04 28.96C6.6 29.5467 7.37333 29.84 8.36 29.84ZM28.1841 33.36C26.4241 33.36 24.9574 33.0267 23.7841 32.36C22.6107 31.6933 21.7307 30.7333 21.1441 29.48C20.5574 28.2267 20.2641 26.7467 20.2641 25.04V23.96H24.5041C24.5041 24.0667 24.5041 24.1867 24.5041 24.32C24.5041 24.4267 24.5041 24.5467 24.5041 24.68C24.5307 25.64 24.6374 26.5067 24.8241 27.28C25.0374 28.0533 25.3974 28.6667 25.9041 29.12C26.4374 29.5733 27.1974 29.8 28.1841 29.8C29.2241 29.8 30.0107 29.56 30.5441 29.08C31.0774 28.5733 31.4374 27.8667 31.6241 26.96C31.8107 26.0533 31.9041 25.0133 31.9041 23.84C31.9041 22.1333 31.5841 20.7467 30.9441 19.68C30.3307 18.5867 29.2374 17.9867 27.6641 17.88C27.5841 17.8533 27.4774 17.84 27.3441 17.84C27.2374 17.84 27.1441 17.84 27.0641 17.84V13.56C27.1441 13.56 27.2374 13.56 27.3441 13.56C27.4507 13.56 27.5441 13.56 27.6241 13.56C29.1441 13.5067 30.2374 13.1067 30.9041 12.36C31.5707 11.6133 31.9041 10.3733 31.9041 8.64C31.9041 7.17333 31.6507 6 31.1441 5.12C30.6641 4.24 29.6907 3.8 28.2241 3.8C26.7574 3.8 25.7841 4.29333 25.3041 5.28C24.8241 6.24 24.5574 7.48 24.5041 9C24.5041 9.10667 24.5041 9.22667 24.5041 9.36C24.5041 9.46667 24.5041 9.57333 24.5041 9.68H20.2641V8.6C20.2641 6.86667 20.5574 5.38667 21.1441 4.16C21.7307 2.93333 22.6107 1.98667 23.7841 1.32C24.9841 0.653332 26.4641 0.319999 28.2241 0.319999C30.0107 0.319999 31.4907 0.653332 32.6641 1.32C33.8374 1.98667 34.7174 2.94667 35.3041 4.2C35.8907 5.42667 36.1841 6.90667 36.1841 8.64C36.1841 10.5867 35.7574 12.1467 34.9041 13.32C34.0774 14.4933 32.9574 15.2933 31.5441 15.72C32.5307 16.0133 33.3574 16.52 34.0241 17.24C34.7174 17.96 35.2507 18.88 35.6241 20C35.9974 21.0933 36.1841 22.3733 36.1841 23.84C36.1841 25.76 35.9174 27.44 35.3841 28.88C34.8507 30.2933 33.9974 31.4 32.8241 32.2C31.6507 32.9733 30.1041 33.36 28.1841 33.36Z" fill="#DEDEDE"/>
</svg>
