<svg width="38" height="34" viewBox="0 0 38 34" fill="none" xmlns="http://www.w3.org/2000/svg">
<path d="M8.36 33.36C6.52 33.36 5 32.9467 3.8 32.12C2.62667 31.2933 1.74667 30.16 1.16 28.72C0.6 27.28 0.32 25.64 0.32 23.8V9.84C0.32 7.94666 0.6 6.29333 1.16 4.88C1.72 3.44 2.58667 2.32 3.76 1.52C4.96 0.719998 6.49333 0.319999 8.36 0.319999C10.2267 0.319999 11.7467 0.719998 12.92 1.52C14.0933 2.32 14.96 3.44 15.52 4.88C16.08 6.29333 16.36 7.94666 16.36 9.84V23.8C16.36 25.6667 16.0667 27.32 15.48 28.76C14.92 30.2 14.0533 31.3333 12.88 32.16C11.7067 32.96 10.2 33.36 8.36 33.36ZM8.36 29.84C9.37333 29.84 10.1333 29.5467 10.64 28.96C11.1733 28.3733 11.5333 27.6267 11.72 26.72C11.9333 25.7867 12.04 24.8267 12.04 23.84V9.8C12.04 8.76 11.9467 7.78667 11.76 6.88C11.5733 5.94667 11.2133 5.2 10.68 4.64C10.1733 4.08 9.4 3.8 8.36 3.8C7.32 3.8 6.53333 4.08 6 4.64C5.46667 5.2 5.10667 5.94667 4.92 6.88C4.73333 7.78667 4.64 8.76 4.64 9.8V23.84C4.64 24.8267 4.73333 25.7867 4.92 26.72C5.13333 27.6267 5.50667 28.3733 6.04 28.96C6.6 29.5467 7.37333 29.84 8.36 29.84ZM29.6641 33V24.32H20.2641V19.84L28.7041 0.599998H33.7441V20.52H37.3841V24.32H33.7441V33H29.6641ZM24.3841 20.52H29.6641V5.8L24.3841 20.52Z" fill="#DEDEDE"/>
</svg>
