<svg width="37" height="34" viewBox="0 0 37 34" fill="none" xmlns="http://www.w3.org/2000/svg">
<path d="M8.36 33.36C6.52 33.36 5 32.9467 3.8 32.12C2.62667 31.2933 1.74667 30.16 1.16 28.72C0.6 27.28 0.32 25.64 0.32 23.8V9.84C0.32 7.94666 0.6 6.29333 1.16 4.88C1.72 3.44 2.58667 2.32 3.76 1.52C4.96 0.719998 6.49333 0.319999 8.36 0.319999C10.2267 0.319999 11.7467 0.719998 12.92 1.52C14.0933 2.32 14.96 3.44 15.52 4.88C16.08 6.29333 16.36 7.94666 16.36 9.84V23.8C16.36 25.6667 16.0667 27.32 15.48 28.76C14.92 30.2 14.0533 31.3333 12.88 32.16C11.7067 32.96 10.2 33.36 8.36 33.36ZM8.36 29.84C9.37333 29.84 10.1333 29.5467 10.64 28.96C11.1733 28.3733 11.5333 27.6267 11.72 26.72C11.9333 25.7867 12.04 24.8267 12.04 23.84V9.8C12.04 8.76 11.9467 7.78667 11.76 6.88C11.5733 5.94667 11.2133 5.2 10.68 4.64C10.1733 4.08 9.4 3.8 8.36 3.8C7.32 3.8 6.53333 4.08 6 4.64C5.46667 5.2 5.10667 5.94667 4.92 6.88C4.73333 7.78667 4.64 8.76 4.64 9.8V23.84C4.64 24.8267 4.73333 25.7867 4.92 26.72C5.13333 27.6267 5.50667 28.3733 6.04 28.96C6.6 29.5467 7.37333 29.84 8.36 29.84ZM28.3841 33.32C26.4374 33.32 24.8907 32.9467 23.7441 32.2C22.5974 31.4533 21.7707 30.3733 21.2641 28.96C20.7841 27.5467 20.5441 25.8667 20.5441 23.92H24.8241C24.8241 24.88 24.9041 25.8267 25.0641 26.76C25.2241 27.6667 25.5574 28.4267 26.0641 29.04C26.5974 29.6267 27.3974 29.92 28.4641 29.92C29.6374 29.92 30.4774 29.5867 30.9841 28.92C31.4907 28.2267 31.8107 27.3067 31.9441 26.16C32.0774 24.9867 32.1441 23.6667 32.1441 22.2C32.1441 20.7333 32.0641 19.4933 31.9041 18.48C31.7441 17.44 31.4107 16.6533 30.9041 16.12C30.3974 15.56 29.5974 15.28 28.5041 15.28C27.6241 15.28 26.8774 15.56 26.2641 16.12C25.6507 16.6533 25.1974 17.2667 24.9041 17.96H21.2641V0.599998H35.2241V4.88H25.1441L24.8641 13.84C25.3974 13.28 26.0507 12.84 26.8241 12.52C27.6241 12.2 28.5307 12.04 29.5441 12.04C31.3041 12.04 32.6774 12.4533 33.6641 13.28C34.6774 14.1067 35.3841 15.24 35.7841 16.68C36.2107 18.12 36.4241 19.7733 36.4241 21.64C36.4241 23.2933 36.3041 24.84 36.0641 26.28C35.8241 27.6933 35.3974 28.9333 34.7841 30C34.1974 31.04 33.3841 31.8533 32.3441 32.44C31.3041 33.0267 29.9841 33.32 28.3841 33.32Z" fill="#DEDEDE"/>
</svg>
