<svg width="17" height="10" viewBox="0 0 17 10" fill="none" xmlns="http://www.w3.org/2000/svg">
<path d="M3.01742 0.897795C2.40869 0.335889 1.4597 0.373849 0.897795 0.98258C0.335889 1.59131 0.373849 2.5403 0.98258 3.10221L3.01742 0.897795ZM8.5 8L7.48258 9.10221C8.05717 9.6326 8.94283 9.6326 9.51742 9.10221L8.5 8ZM16.0174 3.10221C16.6262 2.5403 16.6641 1.59131 16.1022 0.98258C15.5403 0.373849 14.5913 0.335889 13.9826 0.897795L16.0174 3.10221ZM0.98258 3.10221L7.48258 9.10221L9.51742 6.8978L3.01742 0.897795L0.98258 3.10221ZM9.51742 9.10221L16.0174 3.10221L13.9826 0.897795L7.48258 6.8978L9.51742 9.10221Z" fill="#00994D"/>
</svg>
