<svg width="11" height="6" viewBox="0 0 11 6" fill="none" xmlns="http://www.w3.org/2000/svg">
<path d="M1.33218 0.626295C1.12579 0.442836 0.809754 0.461427 0.626295 0.667818C0.442836 0.874209 0.461427 1.19025 0.667818 1.3737L1.33218 0.626295ZM5.5 5L5.16782 5.3737C5.35726 5.5421 5.64274 5.5421 5.83218 5.3737L5.5 5ZM10.3322 1.3737C10.5386 1.19025 10.5572 0.874209 10.3737 0.667818C10.1902 0.461427 9.87421 0.442836 9.66782 0.626295L10.3322 1.3737ZM0.667818 1.3737L5.16782 5.3737L5.83218 4.6263L1.33218 0.626295L0.667818 1.3737ZM5.83218 5.3737L10.3322 1.3737L9.66782 0.626295L5.16782 4.6263L5.83218 5.3737Z" fill="white"/>
</svg>
