<svg width="199" height="62" viewBox="0 0 199 62" fill="none" xmlns="http://www.w3.org/2000/svg">
<path d="M0.179932 30.9116V61.823H11.6593H23.1387L28.3206 49.1396C31.1635 42.1601 33.5385 36.3499 33.5925 36.2081C33.6645 35.9956 31.9372 35.9601 22.2571 35.9247L10.8496 35.8716L13.3866 32.2047C14.7721 30.1853 19.1623 23.8436 23.1207 18.1219C27.0791 12.4001 31.5233 5.98758 32.9807 3.86186L35.6437 0.000144958H17.9208H0.179932V30.9116Z" fill="white"/>
<path d="M39.764 0.389858C39.5121 0.97443 29.5082 26.607 29.5082 26.6779C29.5082 26.7133 34.816 26.7487 41.2934 26.7487C47.7708 26.7487 53.0787 26.7841 53.0787 26.8373C53.0787 26.9259 46.1335 35.9779 27.313 60.4413L26.2515 61.823H44.6221H62.9747V30.9116V0.000144958H51.4593H39.944L39.764 0.389858Z" fill="white"/>
<path d="M144.212 0.177362C137.969 0.708792 132.607 3.20651 128.127 7.63508C126.021 9.70765 124.546 11.6916 123.304 14.1539C122.783 15.1636 122.351 16.0671 122.351 16.1556C122.351 16.2265 125.374 16.2974 129.08 16.2974H135.827L136.493 15.5002C137.969 13.7111 140.991 11.9928 143.654 11.4259C145.759 10.9654 149.574 11.1248 151.769 11.7625C153.604 12.3116 155.655 13.3214 157.041 14.3488C158.192 15.2168 157.545 15.5888 162.457 11.2488L166.073 8.06022L164.868 6.96193C160.873 3.34822 156.195 1.11622 151.049 0.37222C149.142 0.106506 146.029 0.0179348 144.212 0.177362Z" fill="white"/>
<path d="M77.189 8.39679V16.2974H83.3065H89.4241V13.9059V11.5145H93.0226C95.5956 11.5145 97.035 11.6031 98.0246 11.7979C100.67 12.3294 103.584 14.0654 104.448 15.6596L104.808 16.2974H110.871C114.218 16.2974 116.953 16.2442 116.953 16.1911C116.953 15.6419 116.053 12.8962 115.496 11.7271C112.851 6.14708 107.795 2.48022 100.813 1.02765C98.9422 0.65565 98.4564 0.637936 88.0386 0.567079L77.189 0.513936V8.39679Z" fill="white"/>
<path d="M171.111 6.02308V11.5145H174.26H177.409V13.9059V16.2974H183.526H189.644V13.9059V11.5145H192.792H195.941V6.02308V0.531651H183.526H171.111V6.02308Z" fill="white"/>
<path d="M77.189 34.1886V49.0686H83.3065H89.4241V43.9669V38.8475L93.6164 38.7412C98.1326 38.6172 100.49 38.3337 103.009 37.6252C108.982 35.9423 113.768 31.8503 115.927 26.5715C116.629 24.8355 117.133 22.3909 117.133 20.6726V19.3086H111.393H105.636L105.528 20.1412C105.114 23.3829 103.98 24.9772 101.227 26.3057C99.0322 27.3686 98.2405 27.4926 93.6164 27.5812L89.4241 27.6697V23.4892V19.3086H83.3065H77.189V34.1886Z" fill="white"/>
<path d="M121.379 19.6097C120.857 21.3457 120.749 26.4475 121.199 29.0692C122.153 34.6669 125.158 39.7155 129.872 43.5949C135.324 48.0766 142.053 50.096 149.286 49.4229C155.242 48.8915 159.974 46.872 164.562 42.9217L166.073 41.6109V31.5315V21.4343H156.447H146.821V25.8629V30.2915H150.24H153.658V33.6749V37.0406L153.046 37.2886C151.103 38.0857 149.646 38.3337 146.911 38.3515C144.86 38.3515 143.924 38.2629 143.043 38.0326C139.354 37.0229 136.133 34.4366 134.586 31.2835C133.578 29.1932 133.254 27.6343 133.254 24.8886C133.254 22.5503 133.344 21.8772 133.974 19.6983L134.082 19.3086H127.785C121.937 19.3086 121.469 19.3263 121.379 19.6097Z" fill="white"/>
<path d="M177.409 28.6086V37.9086H174.26H171.111V43.4886V49.0686H183.526H195.941V43.4886V37.9086H192.792H189.644V28.6086V19.3086H183.526H177.409V28.6086Z" fill="white"/>
<path d="M77.6928 56.9693C77.6028 57.0402 77.5488 58.1562 77.5488 59.467V61.823H77.9986C78.4125 61.823 78.4485 61.7699 78.4485 60.955V60.087L79.636 60.0161C80.6796 59.9453 80.8955 59.8744 81.2553 59.4493C81.8131 58.8293 81.8131 58.0853 81.2553 57.4476C80.8595 56.987 80.6976 56.9516 79.3121 56.8984C78.5024 56.863 77.7647 56.8984 77.6928 56.9693ZM80.4457 57.7487C80.8415 57.9613 80.9135 58.7939 80.5716 59.1304C80.4457 59.2544 79.9239 59.343 79.4021 59.343H78.4485V58.4573V57.5716H79.2761C79.726 57.5716 80.2477 57.6602 80.4457 57.7487Z" fill="white"/>
<path d="M82.5868 59.3253V61.823H84.2961C85.6995 61.823 86.0054 61.7699 86.0054 61.5573C86.0054 61.3447 85.7535 61.2916 84.7459 61.2916H83.5044L83.4504 59.1127C83.3965 57.0224 83.3785 56.9516 83.0006 56.8984C82.5868 56.8453 82.5868 56.8453 82.5868 59.3253Z" fill="white"/>
<path d="M87.193 59.2011C86.6352 60.4943 86.1854 61.6103 86.1854 61.6811C86.1854 61.7697 86.3473 61.8228 86.5632 61.8228C86.8331 61.8228 87.013 61.628 87.2109 61.1143L87.4988 60.4057H88.5424C89.586 60.4057 89.604 60.4057 89.9638 61.1143C90.2157 61.5926 90.4496 61.8228 90.7015 61.8228C91.1334 61.8228 91.1514 61.8937 89.9818 59.0594C89.2081 57.2525 89.0282 56.9514 88.6504 56.8982C88.2365 56.8451 88.1286 57.0222 87.193 59.2011ZM89.4061 59.7325C89.4241 59.8211 89.0462 59.8743 88.5964 59.8743C88.0026 59.8743 87.7867 59.8034 87.8587 59.644C87.9127 59.5377 88.0926 59.0771 88.2725 58.6343L88.5964 57.8548L88.9922 58.7228C89.2261 59.2188 89.4061 59.6617 89.4061 59.7325Z" fill="white"/>
<path d="M91.5292 56.987C91.4572 57.0402 91.4033 57.1996 91.4033 57.3413C91.4033 57.5184 91.7451 57.5716 92.7527 57.5716C93.4904 57.5716 94.1022 57.6247 94.1022 57.6779C94.1022 57.731 93.4544 58.5636 92.6627 59.5202C91.8711 60.4767 91.2233 61.3979 91.2233 61.5396C91.2233 61.7876 91.5292 61.823 93.2925 61.823C94.9838 61.823 95.3617 61.7699 95.3617 61.5573C95.3617 61.3624 95.0198 61.2916 93.8143 61.2561L92.2669 61.203L93.7243 59.4139C94.534 58.4219 95.1817 57.4476 95.1817 57.235C95.1817 56.8807 95.0918 56.863 93.4184 56.863C92.4468 56.863 91.5832 56.9162 91.5292 56.987Z" fill="white"/>
<path d="M96.0814 59.343V61.823H96.5312C96.963 61.823 96.981 61.7698 96.981 60.8664C96.981 59.4847 97.3589 59.4138 98.4564 60.6184C98.9242 61.1321 99.3021 61.6104 99.3201 61.6813C99.3201 61.7698 99.7699 61.823 100.328 61.823H101.335L101.605 61.1144L101.893 60.4058H102.955H104.016L104.322 61.1144C104.556 61.6458 104.736 61.823 105.042 61.823C105.546 61.823 105.564 61.8584 104.322 58.971C103.548 57.1464 103.368 56.863 103.009 56.863C102.649 56.863 102.451 57.1818 101.551 59.2721L100.49 61.699L99.2841 60.3881L98.0606 59.0773L99.1761 57.979C100.184 56.9693 100.256 56.863 99.8599 56.863C99.554 56.863 99.0322 57.235 98.2045 58.0498L96.981 59.2367V58.0498C96.981 56.8984 96.963 56.863 96.5312 56.863H96.0814V59.343ZM103.8 59.7327C103.818 59.8213 103.44 59.8744 102.991 59.8744C102.091 59.8744 102.091 59.8744 102.703 58.475L102.973 57.8373L103.386 58.723C103.602 59.2013 103.8 59.6618 103.8 59.7327Z" fill="white"/>
<path d="M105.078 57.2173C105.078 57.5184 105.186 57.5716 105.887 57.5716H106.697V59.6973V61.823H107.147H107.597V59.6973V57.5716H108.514C109.288 57.5716 109.414 57.5184 109.36 57.2527C109.306 56.987 109.036 56.9516 107.183 56.8984C105.168 56.8453 105.078 56.863 105.078 57.2173Z" fill="white"/>
<path d="M112.851 57.1641C111.339 57.8904 111.285 60.6361 112.761 61.5927C113.408 62.0178 115.046 62.0001 115.927 61.575C116.575 61.2561 116.593 61.2207 116.593 60.2996V59.343H115.406C114.38 59.343 114.236 59.3784 114.29 59.6441C114.326 59.8744 114.56 59.9807 115.118 60.0161C115.711 60.0516 115.873 60.1401 115.873 60.3881C115.873 61.1498 114.362 61.5396 113.39 61.0436C112.347 60.5121 112.167 58.6698 113.121 57.9258C113.732 57.4653 114.776 57.4653 115.406 57.9436C116.017 58.4041 116.701 58.2624 116.359 57.731C115.837 56.8984 114.002 56.5973 112.851 57.1641Z" fill="white"/>
<path d="M117.673 59.3253C117.673 61.699 117.691 61.823 118.033 61.823C118.356 61.823 118.392 61.699 118.392 60.8487V59.8744H119.166C119.886 59.8744 119.958 59.9276 120.552 60.8487C121.073 61.6459 121.271 61.823 121.685 61.823H122.171L121.541 60.8664L120.893 59.9276L121.433 59.3784C122.099 58.723 122.153 58.1207 121.559 57.4653C121.163 57.0047 121.037 56.9693 119.4 56.8984L117.673 56.8276V59.3253ZM120.749 57.7487C121.127 57.9613 121.199 58.6344 120.875 58.9533C120.749 59.0773 120.174 59.1659 119.526 59.1659H118.392V58.3687V57.5716H119.4C119.94 57.5716 120.552 57.6601 120.749 57.7487Z" fill="white"/>
<path d="M123.97 57.1818C122.801 57.7486 122.405 59.272 123.053 60.6892C123.322 61.2915 123.556 61.4863 124.222 61.7343C125.644 62.2658 126.957 61.8229 127.605 60.5652C128.54 58.7938 127.335 56.8629 125.32 56.8629C124.924 56.8629 124.312 57.0046 123.97 57.1818ZM126.219 57.6778C126.651 57.8549 127.029 58.7052 127.029 59.52C127.029 61.1143 125.248 61.876 124.132 60.7778C123.7 60.3349 123.61 60.1046 123.61 59.3783C123.61 58.2092 124.168 57.5715 125.212 57.5715C125.608 57.5715 126.057 57.6246 126.219 57.6778Z" fill="white"/>
<path d="M128.648 58.6699C128.648 59.7682 128.738 60.6716 128.882 60.9373C129.44 62.0533 131.545 62.3013 132.499 61.3447C132.949 60.9019 132.967 60.8133 132.967 58.8825C132.967 56.987 132.949 56.863 132.607 56.863C132.265 56.863 132.247 56.987 132.247 58.6345C132.247 60.2996 132.211 60.459 131.797 60.8487C131.257 61.3979 130.412 61.4333 129.908 60.9373C129.602 60.6362 129.548 60.3527 129.548 58.723V56.863H129.098H128.648V58.6699Z" fill="white"/>
<path d="M134.046 59.3253V61.823H134.496C134.91 61.823 134.946 61.7699 134.946 60.955V60.087L136.115 60.0161C137.483 59.9276 137.951 59.591 138.112 58.6167C138.202 58.1207 138.13 57.8904 137.771 57.483C137.357 57.0047 137.231 56.9693 135.683 56.8984L134.046 56.8276V59.3253ZM136.943 57.7487C137.159 57.8727 137.285 58.1207 137.285 58.4573C137.285 59.095 136.871 59.343 135.773 59.343H134.946V58.4573V57.5716H135.773C136.223 57.5716 136.745 57.6601 136.943 57.7487Z" fill="white"/>
<path d="M141.063 59.343C141.063 61.699 141.081 61.823 141.423 61.823C141.765 61.823 141.783 61.699 141.783 59.343C141.783 56.987 141.765 56.863 141.423 56.863C141.081 56.863 141.063 56.987 141.063 59.343Z" fill="white"/>
<path d="M143.042 59.343C143.042 61.699 143.06 61.823 143.402 61.823C143.744 61.823 143.762 61.699 143.762 59.9453V58.0676L145.022 59.9453C146.065 61.5041 146.353 61.823 146.731 61.823H147.181V59.343C147.181 56.987 147.163 56.863 146.821 56.863C146.497 56.863 146.461 57.0047 146.425 58.7584L146.371 60.6716L145.13 58.7584C144.14 57.2173 143.816 56.863 143.474 56.863H143.042V59.343Z" fill="white"/>
<path d="M147.901 57.2173C147.901 57.5184 148.026 57.5716 148.8 57.5716H149.7V59.6973C149.7 61.699 149.718 61.823 150.06 61.823C150.402 61.823 150.42 61.699 150.42 59.6973V57.5716H151.319C152.093 57.5716 152.219 57.5184 152.219 57.2173C152.219 56.8807 152.093 56.863 150.06 56.863C148.026 56.863 147.901 56.8807 147.901 57.2173Z" fill="white"/>
<path d="M152.885 56.987C152.813 57.0402 152.759 58.1562 152.759 59.467V61.823H154.918C156.717 61.823 157.077 61.7699 157.077 61.5573C157.077 61.3447 156.771 61.2916 155.368 61.2916H153.658V60.4944V59.715L155.134 59.6619C156.393 59.6087 156.627 59.5556 156.681 59.2899C156.735 59.0242 156.573 58.9887 155.206 58.9887H153.658V58.2802V57.5716H155.278C156.771 57.5716 156.897 57.5539 156.897 57.2173C156.897 56.8807 156.771 56.863 154.954 56.863C153.874 56.863 152.939 56.9162 152.885 56.987Z" fill="white"/>
<path d="M157.797 59.3429V61.8229H158.246C158.678 61.8229 158.696 61.7698 158.696 60.8486V59.8744H159.398C160.082 59.8744 160.154 59.9275 160.711 60.8486C161.197 61.6635 161.377 61.8229 161.809 61.8229C162.367 61.8229 162.367 61.8761 161.485 60.6006C161.107 60.0515 161.017 59.7858 161.179 59.7326C161.917 59.5024 162.313 58.4572 161.917 57.7664C161.521 57.0755 160.909 56.8629 159.29 56.8629H157.797V59.3429ZM160.873 57.7487C161.251 57.9612 161.323 58.6344 160.999 58.9532C160.873 59.0772 160.316 59.1658 159.74 59.1658H158.696V58.3687V57.5715H159.614C160.118 57.5715 160.675 57.6601 160.873 57.7487Z" fill="white"/>
<path d="M163.194 59.343C163.194 61.699 163.212 61.823 163.554 61.823C163.878 61.823 163.914 61.6813 163.95 60.0161L164.004 58.1916L165.174 59.9984C166.181 61.5573 166.415 61.8053 166.847 61.8053L167.333 61.823V59.343C167.333 56.987 167.315 56.863 166.973 56.863C166.649 56.863 166.613 57.0047 166.577 58.7584L166.523 60.6716L165.264 58.7584C164.274 57.2704 163.932 56.863 163.608 56.863C163.194 56.863 163.194 56.8807 163.194 59.343Z" fill="white"/>
<path d="M169.87 57.1642C169.78 57.3413 169.42 58.1562 169.078 58.9887C168.718 59.8213 168.304 60.7956 168.16 61.1499C167.873 61.823 167.873 61.823 168.304 61.823C168.646 61.823 168.79 61.6636 169.024 61.1144L169.312 60.4059H170.392H171.471L171.759 61.1144C171.993 61.6636 172.137 61.823 172.479 61.823C172.893 61.823 172.911 61.8053 172.677 61.2384C172.551 60.9373 172.083 59.8213 171.633 58.7762C170.967 57.1642 170.787 56.863 170.446 56.863C170.23 56.863 169.96 57.0047 169.87 57.1642ZM170.805 58.7584C170.967 59.2367 171.111 59.6619 171.111 59.7327C171.111 59.8213 170.787 59.8744 170.392 59.8744C169.996 59.8744 169.672 59.8213 169.672 59.7327C169.672 59.4847 170.284 57.9259 170.392 57.9259C170.446 57.9259 170.643 58.2979 170.805 58.7584Z" fill="white"/>
<path d="M172.371 57.2173C172.371 57.5184 172.497 57.5716 173.27 57.5716H174.17V59.6973V61.823H174.62H175.07V59.6973V57.5716H175.879C176.563 57.5716 176.689 57.5184 176.689 57.2173C176.689 56.8807 176.563 56.863 174.53 56.863C172.497 56.863 172.371 56.8807 172.371 57.2173Z" fill="white"/>
<path d="M177.409 59.343V61.823H177.859H178.308V59.343V56.863H177.859H177.409V59.343Z" fill="white"/>
<path d="M180.27 57.2704C179.478 57.7841 179.208 58.3332 179.208 59.4492C179.208 60.6361 179.748 61.4687 180.737 61.7875C182.033 62.2127 183.346 61.823 184.012 60.8132C184.408 60.2287 184.408 58.7407 184.012 57.9967C183.418 56.8807 181.439 56.491 180.27 57.2704ZM182.86 57.9258C183.13 58.1384 183.382 58.5635 183.454 58.9001C183.778 60.6007 182.447 61.7698 180.953 61.0967C179.874 60.6184 179.712 58.5281 180.701 57.8372C181.259 57.4652 182.303 57.5007 182.86 57.9258Z" fill="white"/>
<path d="M185.146 59.343C185.146 61.699 185.164 61.823 185.505 61.823C185.829 61.823 185.865 61.6813 185.901 59.9099L185.955 58.0144L187.197 59.9099C188.294 61.6281 188.474 61.823 188.942 61.823H189.464V59.343C189.464 56.987 189.446 56.863 189.104 56.863C188.762 56.863 188.744 56.987 188.744 58.723C188.744 59.7504 188.69 60.583 188.618 60.5653C188.528 60.5653 187.934 59.7327 187.269 58.7053C186.261 57.1642 185.973 56.863 185.595 56.863H185.146V59.343Z" fill="white"/>
<path d="M191.029 59.2367C190.453 60.5653 190.004 61.6813 190.004 61.7344C190.004 61.7876 190.184 61.823 190.417 61.823C190.705 61.823 190.885 61.6459 191.119 61.1144L191.425 60.4059H192.487H193.548L193.836 61.1144C194.034 61.6281 194.214 61.823 194.484 61.823C194.7 61.823 194.862 61.7521 194.862 61.6636C194.862 61.5927 194.43 60.4944 193.89 59.2367C193.044 57.2704 192.864 56.9516 192.487 56.8984C192.073 56.8453 191.965 57.0224 191.029 59.2367ZM192.774 58.5104C193.35 59.8921 193.35 59.8744 192.433 59.8744C191.821 59.8744 191.605 59.8036 191.677 59.6441C192.181 58.3864 192.397 57.9259 192.451 57.9259C192.487 57.9259 192.631 58.1916 192.774 58.5104Z" fill="white"/>
<path d="M195.401 59.343V61.823H197.111C198.514 61.823 198.82 61.7699 198.82 61.5573C198.82 61.3447 198.568 61.2916 197.561 61.2916H196.301V59.0773V56.863H195.851H195.401V59.343Z" fill="white"/>
</svg>
